<?xml version="1.0" standalone="no"?>
<!DOCTYPE svg PUBLIC "-//W3C//DTD SVG 20010904//EN"
 "http://www.w3.org/TR/2001/REC-SVG-20010904/DTD/svg10.dtd">
<svg version="1.0" xmlns="http://www.w3.org/2000/svg"
 width="1280.000000pt" height="911.000000pt" viewBox="0 0 1280.000000 911.000000"
 preserveAspectRatio="xMidYMid meet">

<g transform="translate(0.000000,911.000000) scale(0.100000,-0.100000)"
fill="#000000" stroke="none">
<path d="M880 8379 c-415 -5 -775 -9 -801 -11 l-46 -3 1779 -2810 c978 -1545
1782 -2811 1786 -2812 4 -2 222 488 485 1087 l477 1090 -1198 1733 -1199 1732
-264 1 c-145 0 -604 -3 -1019 -7z"/>
<path d="M11206 8382 c-2 -4 -95 -213 -206 -462 -111 -250 -212 -478 -225
-506 -13 -28 -123 -274 -244 -545 -121 -272 -589 -1315 -1039 -2319 l-820
-1825 42 -3 c22 -1 90 1 150 5 l108 8 479 1070 c818 1825 1121 2500 1129 2510
7 10 307 679 705 1575 114 256 211 470 216 476 6 8 -24 13 -104 17 -147 9
-185 9 -191 -1z"/>
<path d="M6761 8338 c-42 -98 -302 -685 -581 -1313 -299 -673 -1871 -4176
-1909 -4256 -21 -42 -21 -52 -21 -1156 l0 -1113 150 0 150 0 0 1115 0 1115
559 1248 c778 1735 1135 2528 1165 2587 30 59 314 692 396 885 32 74 128 295
215 490 87 195 166 374 176 398 l18 42 -150 0 -150 0 -18 -42z"/>
<path d="M6974 7753 c-178 -406 -2187 -4887 -2230 -4977 l-24 -50 0 -1283 0
-1283 150 0 150 0 0 1285 0 1285 579 1293 c702 1566 1144 2548 1446 3207 124
272 235 514 245 538 l19 42 -155 0 -154 0 -26 -57z"/>
<path d="M11396 7758 c-12 -29 -127 -287 -255 -573 -127 -286 -259 -581 -292
-655 -32 -74 -430 -961 -883 -1970 l-824 -1835 42 -3 c22 -1 90 1 150 5 l108
8 479 1070 c1004 2241 1242 2768 1641 3640 61 132 123 268 139 303 l28 62
-155 0 -154 0 -24 -52z"/>
<path d="M5881 7558 c-10 -24 -63 -142 -118 -263 -55 -121 -168 -373 -251
-560 -84 -187 -522 -1164 -975 -2172 l-822 -1832 3 -975 2 -976 150 0 150 0 0
986 0 987 511 1141 c704 1571 1217 2711 1246 2771 23 48 345 743 404 873 l28
62 -155 0 -155 0 -18 -42z"/>
<path d="M10361 7558 c-10 -24 -80 -178 -155 -343 -75 -165 -148 -327 -162
-360 -15 -33 -437 -976 -939 -2095 l-913 -2035 42 -3 c22 -1 90 1 150 5 l108
8 475 1060 c593 1325 1274 2836 1433 3185 67 146 146 321 177 390 31 69 66
149 79 178 l24 52 -150 0 -151 0 -18 -42z"/>
<path d="M7291 7398 c-41 -95 -2051 -4570 -2070 -4609 -21 -42 -21 -56 -21
-831 l0 -788 150 0 150 0 0 790 0 790 579 1293 c616 1375 1290 2874 1439 3200
l90 197 -149 0 -150 0 -18 -42z"/>
<path d="M11710 7398 c-6 -13 -480 -1069 -1054 -2348 l-1044 -2325 42 -3 c22
-1 90 1 150 5 l108 8 479 1070 c634 1415 1259 2804 1462 3253 l165 362 -149 0
c-145 0 -150 -1 -159 -22z"/>
<path d="M7143 5958 c-249 -546 -457 -1005 -464 -1019 -10 -25 30 -91 677
-1113 378 -597 689 -1084 691 -1083 1 2 214 491 473 1088 l470 1084 -38 55
c-20 30 -332 488 -691 1018 -360 529 -657 962 -660 962 -4 0 -210 -447 -458
-992z"/>
</g>
</svg>
